<svg xmlns="http://www.w3.org/2000/svg" data-name="Camada 1" viewBox="0 0 100 100" id="butterfly"><path d="M52.567 100a16.06 16.06 0 0 1-6-1.13c-5.483-2.205-9.181-6.879-12.361-11.601a73.5 73.5 0 0 1-1.325-2.04c-13.957 1.097-23.299-1.177-28.526-6.917A16.576 16.576 0 0 1 .02 66.262a19.117 19.117 0 0 1 6.36-13.1c10.076-9.1 26.24-9.822 39.544-7.238-2.583-13.306-1.86-29.47 7.24-39.545A19.115 19.115 0 0 1 66.263.02 16.58 16.58 0 0 1 78.31 4.353c5.742 5.23 8.01 14.573 6.918 28.527.704.442 1.38.88 2.04 1.326 4.723 3.18 9.396 6.88 11.601 12.36 2.115 5.257 1.22 11.705-2.337 16.826-5.544 7.987-15.679 9.697-24.623 8.517 1.179 8.949-.533 19.081-8.518 24.625A19.14 19.14 0 0 1 52.567 100Zm-16.49-21.092s2.398 3.958 3.106 5.009c2.646 3.928 5.643 7.784 9.624 9.386 3.35 1.349 7.734.68 11.163-1.699 6.854-4.758 7.215-14.863 5.268-22.733l-1.195-4.829 4.828 1.195c7.868 1.948 17.974 1.589 22.733-5.268 2.38-3.428 3.047-7.81 1.7-11.163-1.602-3.98-5.459-6.977-9.387-9.624-1.056-.711-5.01-3.106-5.01-3.106l.183-1.893c1.24-12.808-.38-21.351-4.819-25.393a10.455 10.455 0 0 0-7.716-2.776 13.077 13.077 0 0 0-8.938 4.387c-8.619 9.543-7.972 26.836-4.8 38.745l1.335 5.005-5.006-1.333c-11.909-3.174-29.201-3.821-38.744 4.798a13.08 13.08 0 0 0-4.388 8.939 10.475 10.475 0 0 0 2.777 7.716c4.097 4.5 12.405 6.08 25.392 4.82Z"></path></svg>