<svg xmlns="http://www.w3.org/2000/svg" width="512" height="512" id="butterlfy"><path d="M514.333 331.376C505.111 343.619 492.073 350.859 477.129 353.684C484.232 358.91 490.099 367.933 493.596 375.924C505.142 402.311 493.124 426.937 480.329 449.855C463.93 479.229 442.364 515.947 402.793 499.825C374.643 488.355 349.924 449 338.479 421.529C337.369 431.006 335.907 441.063 333.139 450.195C326.996 470.463 313.82 472.656 307.195 451.071C304.185 441.265 302.896 431.035 302.098 420.838L295.575 435.054C279.992 465.427 252.187 507.049 214.03 503.14C189.856 500.664 173.997 473.61 162.959 454.582C152.545 436.631 139.973 415.699 142.363 394.028C144.059 378.648 151.48 362.825 163.759 353.116C163.061 352.636 160.871 352.509 159.947 352.309C129.206 345.674 127.039 328.378 111.406 307.141C105.085 298.554 96.9775 291.717 91.5527 282.391C75.6914 255.122 91.1754 235.206 82.783 212.969C75.3254 193.208 60.6318 190.209 55.5619 178.975C46.482 158.856 71.7863 150.264 88.0248 150.229C162.273 150.634 237.814 217.815 281.117 272.655C287.186 280.34 293.865 288.092 299.098 296.363C302.329 290.115 300.881 287.051 308.19 280.514L308.62 280.133C305.042 269.224 301.063 253.089 294.049 243.861C291.98 241.139 288.397 238.68 287.493 235.312C285.492 227.851 293.921 223.751 299.85 227.936C308.835 234.277 318.302 258.516 320.649 270.534C322.582 261.032 332.981 229.903 343.739 226.894C347.701 225.786 351.988 227.127 353.05 231.406C354.52 237.322 349.67 239.446 346.936 243.829C343.713 248.997 329.773 277.007 333.68 281.798C337.713 286.742 340.107 291.203 341.625 297.54L345.56 291.206C350.652 283.773 356.476 276.832 362.13 269.825C402.652 219.607 462.837 166.003 528.289 152.444L538.358 150.745C553.365 147.798 583.212 150.823 586.398 168.981C588.666 181.905 577.447 187.035 569.744 194.51C544.418 219.084 562.147 241.69 554.853 268.35C550.131 285.608 536.975 295.739 527.319 309.806C522.573 316.72 519.192 324.451 514.333 331.376ZM87.0023 164.818C81.9076 165.165 72.9737 165.727 69.4347 170.036C66.5332 173.569 76.4666 179.339 78.5975 181.256C94.1757 195.275 101.072 213.989 99.814 234.774C98.9472 249.099 95.928 259.066 103.328 273.259C109.271 284.656 120.034 293.013 127.199 303.695C131.113 309.53 133.826 316.06 137.822 321.804C148.176 336.687 164.699 339.559 181.518 338.314L198.11 336.377C204.708 335.721 214.142 335.21 220.99 334.972L242.711 334.814C244.936 334.768 247.1 334.247 249.324 334.162L286.066 334.03C288.872 334.02 292.035 334.318 294.779 333.795C294.713 330.779 291.486 329.95 289.24 328.977L275.944 323.963C247.299 314.67 229.708 311.737 200.207 312.928L191.799 313.528L181.571 314.891C178.728 315.278 175.417 316.07 172.563 315.771C164.699 314.946 163.737 303.555 171.472 301.336C175.525 300.174 180.611 300.338 184.819 299.985L200.963 298.34C210.456 297.717 225.449 297.131 234.949 298.937L249.878 301.316C265.366 304.584 279.924 309.774 294.468 315.879C283.966 301.733 274.231 287.227 262.887 273.695C225.56 229.169 150.209 162.278 87.0023 164.818ZM548.287 164.819C486.941 168.755 425.453 219.379 386.532 263.6L355.971 301.925C352.698 306.3 348.745 310.693 346.001 315.383C350.063 314.373 353.946 312.757 357.87 311.314L374.432 305.648C401.076 297.402 425.321 297.021 452.86 299.693L461.772 300.416C464.657 300.58 468.675 300.298 471.169 301.846C477.752 305.93 475.882 314.439 468.439 315.435C464.782 315.925 460.652 315.203 457.022 314.731L442.577 312.789C414.181 310.422 388.955 315.215 362.292 325.03L352.592 328.873C349.371 330.221 347.899 330.759 345.992 333.672C347.363 334.145 348.994 333.99 350.436 334.007L381.897 334.091C385.893 334.122 389.783 334.796 393.79 334.831L430.312 335.778C442.559 336.304 454.502 338.75 466.071 338.812C501.359 339.003 499.522 323.458 516.605 299.383C534.074 274.765 544.306 275.475 541.375 242.234C539.163 217.148 542.99 198.274 563.116 180.767C565.977 178.278 574.981 174.34 570.793 169.973C566.108 165.089 557.071 164.651 550.778 164.744L548.287 164.819ZM319.137 291.406C311.089 295.711 311.078 303.572 310.958 311.674L311.077 366.405L313.211 390.423C314.571 407.461 316.366 423.991 320.493 440.632C322.561 431.283 324.297 421.841 325.387 412.324L329.139 365.781L329.21 306.923C329.185 304.178 329.575 300.154 328.02 297.812L327.507 297.134C325.71 294.863 322.553 290.382 319.137 291.406ZM265.278 348.469L235.246 349.122C232.878 349.184 230.546 349.63 228.182 349.705L209.214 350.1C194.552 351.079 181.421 355.607 170.791 366.07C144.177 392.266 161.667 423.332 176.928 449.101C182.875 459.141 188.832 469.615 197.142 477.934L199.128 479.873C240.925 515.539 281.696 433.89 293.332 403.653L296.291 395.938C297.775 392.015 298.312 389.621 297.95 385.44L296.216 348.802C291.818 348.152 287.199 348.409 282.757 348.414L265.278 348.469ZM344.128 348.404L343.848 370.312C343.552 377.158 340.87 385.901 342.711 392.504C349.857 418.135 367.432 449.264 385.039 468.332C412.47 498.038 434.919 495.218 455.978 462.469L470.247 438.072C478.199 423.421 486.526 407.422 482.828 390.251C479.924 376.763 470.802 365.428 459.298 358.118C445.993 349.662 423.759 349.659 407.702 349.149L366.497 348.989C364.073 348.967 361.699 348.542 359.282 348.468L344.128 348.404Z" transform="scale(.8)"></path><path d="M154.415 238.472C145.699 238.612 144.882 231.962 138.889 227.531 133.636 223.647 116.514 223.022 119.95 212.747 120.804 210.193 122.754 208.947 125.059 207.878 142.803 205.772 172.528 233.16 154.415 238.472zM491.64 237.98L490.282 238.503C474.64 243.341 479.023 213.466 511.453 208.222 516.348 207.238 522.399 209.956 521.764 215.781 520.966 223.1 507.184 223.376 501.692 227.458 497.727 230.406 495.621 235.029 491.64 237.98zM235.391 453.592C221.86 458.348 206.658 450.225 204.765 435.588 202.815 420.516 210.657 403.039 219.781 391.675 229.931 379.033 243.335 372.182 259.356 370.439 276.62 368.896 298.628 374.803 288.96 395.789 279.305 416.748 256.924 445.565 235.391 453.592zM262.385 385.134C238.416 386.545 217.891 409.15 219.445 432.789 219.975 440.853 225.934 441.47 232.503 438.838 247.838 430.84 269.989 404.681 276.576 387.656 275.388 384.295 265.154 385.024 262.385 385.134zM414.713 454.96C391.365 455.119 367.298 423.471 356.749 405.991 344.907 386.366 345.095 373.701 370.75 370.427 429.954 365.592 458.796 450.178 414.713 454.96zM373.151 384.869C370.149 384.997 366.323 384.91 363.768 386.719 363.159 389.852 371.759 402.295 373.932 405.525 382.237 417.869 397.9 436.615 412.692 440.197 417.194 440.48 421.324 437.36 421.409 432.666 421.641 419.738 414.223 405.453 405.21 396.528 396.1 387.508 385.369 385.024 373.151 384.869z" transform="scale(.8)"></path></svg>