<svg xmlns="http://www.w3.org/2000/svg" enable-background="new 0 0 66 66" viewBox="0 0 66 66" id="flying-butterfly"><path d="M21.3761 55.0952c-1.2566-.2413-2.5134-.6132-3.7498-1.1058-4.7099-1.8547-9.1775-6.2955-8.6665-10.7874.0706-1.0858.5229-2.071 1.2268-2.8854-.1208-.7842-.1912-1.5985-.1711-2.4531-.3918.2815-.7539.6032-1.0957.9551-1.0657 1.0958-1.8096 2.6239-1.9604 4.1923-.4292 5.6354 4.5081 10.5168 10.0337 12.597 2.9656 1.126 5.9717 1.488 8.7664 1.3975-1.4275-.4725-2.9055-1.0958-4.3733-1.9001L21.3761 55.0952zM10.9408 33.2992c.1233-.321.3668-.8646.5828-1.1762-4.2078-8.4283-2.7402-18.7886.0603-21.6956.1709-.744.3823-1.4678.6233-2.1917.0806-.2513.1812-.5228.2815-.8043l-.3618.2111c-.4021.2111-.7339.4926-1.0657.7842C6.4359 11.9128 5.6406 24.2419 10.9408 33.2992z"></path><path d="M51.2872,49.3457c0,0.5977,0.269,1.1276,0.6863,1.4922c-0.0042,0.0012-0.0071,0.0035-0.0112,0.0046
		c-0.4724,0.1207-1.0454,0.1408-1.5884,0.0101c-0.1206-0.0201-0.2412-0.0402-0.3718-0.0804c0-0.7137-0.0305-1.6487-0.0603-2.7848
		c-0.9144-12.8255-5.3509-25.6761-11.9438-35.7503c-2.694-4.0788-6.4981-8.7251-11.0288-10.506
		c-4.3025-1.711-8.3756-0.1715-10.5259,2.5435c-1.166,1.4678-1.8298,3.0764-2.3225,4.5945
		c-1.7495,5.2662-1.7788,11.1925,0.2312,17.1011c0.5532,1.5784,1.2266,2.9858,1.9604,4.2325
		c-8.9419,4.8464-3.8415,23.5175,15.4021,26.119c2.3123,0.3016,4.4136,0.2313,6.2332-0.01
		c-1.6645,3.3239-1.1247,6.3041-1.0757,8.6761c0.0673-0.2526-0.3284-3.2843,3.4685-6.6554c2.8377-2.5746,6.0464-2.426,8.7263-3.7098
		c1.7516-0.8756,3.121-1.5722,3.8909-3.3176c0.0002-0.0007,0.0005-0.0013,0.0005-0.0013c0.1045,0.0161,0.2095,0.0313,0.3186,0.0313
		c1.0986,0,1.9893-0.8907,1.9893-1.9894C55.266,46.7155,51.2872,46.7118,51.2872,49.3457z M46.2318,50.0283
		c-2.2389,0.2351-5.4287,1.9016-7.52,5.0067c-1.9504,0.0403-4.2327-0.1407-6.6755-0.6534
		c-6.6508-1.3737-13.8394-6.1978-15.9851-12.5267c-1.8129-5.2546,0.2899-9.6731,5.6399-9.5408
		c2.3628,0.0503,4.8862,0.9852,7.1985,1.9604c4.6145,2.0208,8.626,4.7151,11.5313,7.6206c2.9155,2.8854,5.0571,5.6501,6.2937,7.7512
		c0.0701,0.1207,0.1406,0.2313,0.2112,0.3519C46.7042,49.9881,46.473,49.9982,46.2318,50.0283z M48.6346,50.34
		c-0.3018-0.1005-0.6433-0.2111-1.0254-0.2715c-0.0908-0.2312-0.1909-0.4825-0.2917-0.744c-0.9954-2.262-2.6038-5.5093-5.449-8.7867
		c-2.835-3.2473-6.7156-6.7258-11.7324-9.0482c-2.1463-1.0907-5.6049-2.3148-8.3342-2.4531
		c-1.3271-0.0704-2.7249,0.0804-4.0718,0.543c-0.563-1.2769-1.0859-2.6843-1.498-4.2025
		c-2.1152-7.5646,0.2372-16.2575,2.6541-19.0916c1.6361-1.8692,4.0848-2.5445,6.7964-1.4075
		c3.4821,1.4486,7.3536,5.9668,9.6011,9.209c6.1869,8.9096,12.2647,23.987,13.9741,33.991c0.2014,1.0556,0.3623,1.9404,0.4729,2.624
		C49.3988,50.6114,49.0367,50.4807,48.6346,50.34z"></path><path d="M53.9879,44.5581c-0.0551,1.3973-0.7773,1.7383-0.8442,1.8383c0.1-0.0821,1.1378-0.2876,1.4041-1.7728
		c0.66-3.1616-4.6274-7.4515,1.9106-8.7968c0.3875-0.0934,0.6084-0.1467,0.6084-0.1467c-1.1902,0.035-3.2856-0.3195-4.4119,1.4353
		C50.9711,39.7621,54.1501,42.3868,53.9879,44.5581z"></path><path d="M55.3529 40.1878c-1.5761 1.7653 1.6976 3.3339.2075 5.7733-.5235.8984-1.0552 1.1514-1.1553 1.2416.1-.0376.9497-.1281 1.6147-.9153 2.1508-2.5026-.7826-4.5311.0173-5.5591.715-.9301 1.8625-.7406 3.0295-.6609C58.9085 40.0404 56.7085 38.602 55.3529 40.1878zM27.8043 38.4508c-6.2373-1.0243-7.9786 3.7356-5.3093 7.1403 1.26 1.6072 3.1755 2.543 5.0593 3.3314 4.6042 1.927 8.6975 3.5242 10.8125 1.3247C42.0092 46.4592 34.8839 39.6134 27.8043 38.4508zM30.6087 15.1727c-4.429-5.694-8.7266-3.3613-8.7266 2.4832.01 3.197.6233 6.3538 1.2969 9.4905 3.6544.477 9.301 2.6516 14.1855 6.3941 0-.0201.0103-.0302.0103-.0503C38.4894 28.0265 34.0503 19.5897 30.6087 15.1727z"></path></svg>